<svg width="250" height="250" viewBox="0 0 250 250" fill="none" xmlns="http://www.w3.org/2000/svg">
<rect width="250" height="250" rx="30" fill="white"/>
<path d="M139.859 169.85L139.709 170H139.559C138.659 170 137.809 169.9 137.009 169.7C136.309 169.4 135.659 169.05 135.059 168.65C134.459 168.15 133.909 167.6 133.409 167C133.009 166.4 132.659 165.75 132.359 165.05C132.159 164.25 132.059 163.4 132.059 162.5V162.35L132.209 162.2H139.859V169.85ZM139.259 169.85V162.2H146.909L147.059 162.35V162.5C147.059 163.4 146.909 164.25 146.609 165.05C146.409 165.75 146.059 166.4 145.559 167C145.159 167.6 144.659 168.15 144.059 168.65C143.459 169.05 142.759 169.4 141.959 169.7C141.259 169.9 140.459 170 139.559 170H139.409L139.259 169.85ZM139.259 155.15L139.409 155H139.559C140.459 155 141.259 155.15 141.959 155.45C142.759 155.65 143.459 156 144.059 156.5C144.659 156.9 145.159 157.4 145.559 158C146.059 158.6 146.409 159.3 146.609 160.1C146.909 160.8 147.059 161.6 147.059 162.5V162.65L146.909 162.8H139.259V155.15ZM139.859 155.15V162.8H132.209L132.059 162.65V162.5C132.059 161.6 132.159 160.8 132.359 160.1C132.659 159.3 133.009 158.6 133.409 158C133.909 157.4 134.459 156.9 135.059 156.5C135.659 156 136.309 155.65 137.009 155.45C137.809 155.15 138.659 155 139.559 155H139.709L139.859 155.15ZM139.859 154.85L139.709 155H139.559C138.659 155 137.809 154.9 137.009 154.7C136.309 154.4 135.659 154.05 135.059 153.65C134.459 153.15 133.909 152.6 133.409 152C133.009 151.4 132.659 150.75 132.359 150.05C132.159 149.25 132.059 148.4 132.059 147.5V147.35L132.209 147.2H139.859V154.85ZM139.259 154.85V147.2H146.909L147.059 147.35V147.5C147.059 148.4 146.909 149.25 146.609 150.05C146.409 150.75 146.059 151.4 145.559 152C145.159 152.6 144.659 153.15 144.059 153.65C143.459 154.05 142.759 154.4 141.959 154.7C141.259 154.9 140.459 155 139.559 155H139.409L139.259 154.85ZM139.259 140.15L139.409 140H139.559C140.459 140 141.259 140.15 141.959 140.45C142.759 140.65 143.459 141 144.059 141.5C144.659 141.9 145.159 142.4 145.559 143C146.059 143.6 146.409 144.3 146.609 145.1C146.909 145.8 147.059 146.6 147.059 147.5V147.65L146.909 147.8H139.259V140.15ZM139.859 140.15V147.8H132.209L132.059 147.65V147.5C132.059 146.6 132.159 145.8 132.359 145.1C132.659 144.3 133.009 143.6 133.409 143C133.909 142.4 134.459 141.9 135.059 141.5C135.659 141 136.309 140.65 137.009 140.45C137.809 140.15 138.659 140 139.559 140H139.709L139.859 140.15ZM154.859 139.85L154.709 140H154.559C153.659 140 152.809 139.9 152.009 139.7C151.309 139.4 150.659 139.05 150.059 138.65C149.459 138.15 148.909 137.6 148.409 137C148.009 136.4 147.659 135.75 147.359 135.05C147.159 134.25 147.059 133.4 147.059 132.5V132.35L147.209 132.2H154.859V139.85ZM154.259 139.85V132.2H161.909L162.059 132.35V132.5C162.059 133.4 161.909 134.25 161.609 135.05C161.409 135.75 161.059 136.4 160.559 137C160.159 137.6 159.659 138.15 159.059 138.65C158.459 139.05 157.759 139.4 156.959 139.7C156.259 139.9 155.459 140 154.559 140H154.409L154.259 139.85ZM154.259 125.15L154.409 125H154.559C155.459 125 156.259 125.15 156.959 125.45C157.759 125.65 158.459 126 159.059 126.5C159.659 126.9 160.159 127.4 160.559 128C161.059 128.6 161.409 129.3 161.609 130.1C161.909 130.8 162.059 131.6 162.059 132.5V132.65L161.909 132.8H154.259V125.15ZM154.859 125.15V132.8H147.209L147.059 132.65V132.5C147.059 131.6 147.159 130.8 147.359 130.1C147.659 129.3 148.009 128.6 148.409 128C148.909 127.4 149.459 126.9 150.059 126.5C150.659 126 151.309 125.65 152.009 125.45C152.809 125.15 153.659 125 154.559 125H154.709L154.859 125.15ZM154.859 124.85L154.709 125H154.559C153.659 125 152.809 124.9 152.009 124.7C151.309 124.4 150.659 124.05 150.059 123.65C149.459 123.15 148.909 122.6 148.409 122C148.009 121.4 147.659 120.75 147.359 120.05C147.159 119.25 147.059 118.4 147.059 117.5V117.35L147.209 117.2H154.859V124.85ZM154.259 124.85V117.2H161.909L162.059 117.35V117.5C162.059 118.4 161.909 119.25 161.609 120.05C161.409 120.75 161.059 121.4 160.559 122C160.159 122.6 159.659 123.15 159.059 123.65C158.459 124.05 157.759 124.4 156.959 124.7C156.259 124.9 155.459 125 154.559 125H154.409L154.259 124.85ZM154.259 110.15L154.409 110H154.559C155.459 110 156.259 110.15 156.959 110.45C157.759 110.65 158.459 111 159.059 111.5C159.659 111.9 160.159 112.4 160.559 113C161.059 113.6 161.409 114.3 161.609 115.1C161.909 115.8 162.059 116.6 162.059 117.5V117.65L161.909 117.8H154.259V110.15ZM154.859 110.15V117.8H147.209L147.059 117.65V117.5C147.059 116.6 147.159 115.8 147.359 115.1C147.659 114.3 148.009 113.6 148.409 113C148.909 112.4 149.459 111.9 150.059 111.5C150.659 111 151.309 110.65 152.009 110.45C152.809 110.15 153.659 110 154.559 110H154.709L154.859 110.15ZM169.859 109.85L169.709 110H169.559C168.659 110 167.809 109.9 167.009 109.7C166.309 109.4 165.659 109.05 165.059 108.65C164.459 108.15 163.909 107.6 163.409 107C163.009 106.4 162.659 105.75 162.359 105.05C162.159 104.25 162.059 103.4 162.059 102.5V102.35L162.209 102.2H169.859V109.85ZM169.259 109.85V102.2H176.909L177.059 102.35V102.5C177.059 103.4 176.909 104.25 176.609 105.05C176.409 105.75 176.059 106.4 175.559 107C175.159 107.6 174.659 108.15 174.059 108.65C173.459 109.05 172.759 109.4 171.959 109.7C171.259 109.9 170.459 110 169.559 110H169.409L169.259 109.85ZM169.259 95.15L169.409 95H169.559C170.459 95 171.259 95.15 171.959 95.45C172.759 95.65 173.459 96 174.059 96.5C174.659 96.9 175.159 97.4 175.559 98C176.059 98.6 176.409 99.3 176.609 100.1C176.909 100.8 177.059 101.6 177.059 102.5V102.65L176.909 102.8H169.259V95.15ZM169.859 95.15V102.8H162.209L162.059 102.65V102.5C162.059 101.6 162.159 100.8 162.359 100.1C162.659 99.3 163.009 98.6 163.409 98C163.909 97.4 164.459 96.9 165.059 96.5C165.659 96 166.309 95.65 167.009 95.45C167.809 95.15 168.659 95 169.559 95H169.709L169.859 95.15ZM169.859 94.85L169.709 95H169.559C168.659 95 167.809 94.9 167.009 94.7C166.309 94.4 165.659 94.05 165.059 93.65C164.459 93.15 163.909 92.6 163.409 92C163.009 91.4 162.659 90.75 162.359 90.05C162.159 89.25 162.059 88.4 162.059 87.5V87.35L162.209 87.2H169.859V94.85ZM169.259 94.85V87.2H176.909L177.059 87.35V87.5C177.059 88.4 176.909 89.25 176.609 90.05C176.409 90.75 176.059 91.4 175.559 92C175.159 92.6 174.659 93.15 174.059 93.65C173.459 94.05 172.759 94.4 171.959 94.7C171.259 94.9 170.459 95 169.559 95H169.409L169.259 94.85ZM169.259 80.15L169.409 80H169.559C170.459 80 171.259 80.15 171.959 80.45C172.759 80.65 173.459 81 174.059 81.5C174.659 81.9 175.159 82.4 175.559 83C176.059 83.6 176.409 84.3 176.609 85.1C176.909 85.8 177.059 86.6 177.059 87.5V87.65L176.909 87.8H169.259V80.15ZM169.859 80.15V87.8H162.209L162.059 87.65V87.5C162.059 86.6 162.159 85.8 162.359 85.1C162.659 84.3 163.009 83.6 163.409 83C163.909 82.4 164.459 81.9 165.059 81.5C165.659 81 166.309 80.65 167.009 80.45C167.809 80.15 168.659 80 169.559 80H169.709L169.859 80.15Z" fill="#FF3402"/>
<path d="M79.8 169.85L79.65 170H79.5C78.6 170 77.75 169.9 76.95 169.7C76.25 169.4 75.6 169.05 75 168.65C74.4 168.15 73.85 167.6 73.35 167C72.95 166.4 72.6 165.75 72.3 165.05C72.1 164.25 72 163.4 72 162.5V162.35L72.15 162.2H79.8V169.85ZM79.2 169.85V162.2H86.85L87 162.35V162.5C87 163.4 86.85 164.25 86.55 165.05C86.35 165.75 86 166.4 85.5 167C85.1 167.6 84.6 168.15 84 168.65C83.4 169.05 82.7 169.4 81.9 169.7C81.2 169.9 80.4 170 79.5 170H79.35L79.2 169.85ZM79.2 155.15L79.35 155H79.5C80.4 155 81.2 155.15 81.9 155.45C82.7 155.65 83.4 156 84 156.5C84.6 156.9 85.1 157.4 85.5 158C86 158.6 86.35 159.3 86.55 160.1C86.85 160.8 87 161.6 87 162.5V162.65L86.85 162.8H79.2V155.15ZM79.8 155.15V162.8H72.15L72 162.65V162.5C72 161.6 72.1 160.8 72.3 160.1C72.6 159.3 72.95 158.6 73.35 158C73.85 157.4 74.4 156.9 75 156.5C75.6 156 76.25 155.65 76.95 155.45C77.75 155.15 78.6 155 79.5 155H79.65L79.8 155.15ZM79.8 154.85L79.65 155H79.5C78.6 155 77.75 154.9 76.95 154.7C76.25 154.4 75.6 154.05 75 153.65C74.4 153.15 73.85 152.6 73.35 152C72.95 151.4 72.6 150.75 72.3 150.05C72.1 149.25 72 148.4 72 147.5V147.35L72.15 147.2H79.8V154.85ZM79.2 154.85V147.2H86.85L87 147.35V147.5C87 148.4 86.85 149.25 86.55 150.05C86.35 150.75 86 151.4 85.5 152C85.1 152.6 84.6 153.15 84 153.65C83.4 154.05 82.7 154.4 81.9 154.7C81.2 154.9 80.4 155 79.5 155H79.35L79.2 154.85ZM79.2 140.15L79.35 140H79.5C80.4 140 81.2 140.15 81.9 140.45C82.7 140.65 83.4 141 84 141.5C84.6 141.9 85.1 142.4 85.5 143C86 143.6 86.35 144.3 86.55 145.1C86.85 145.8 87 146.6 87 147.5V147.65L86.85 147.8H79.2V140.15ZM79.8 140.15V147.8H72.15L72 147.65V147.5C72 146.6 72.1 145.8 72.3 145.1C72.6 144.3 72.95 143.6 73.35 143C73.85 142.4 74.4 141.9 75 141.5C75.6 141 76.25 140.65 76.95 140.45C77.75 140.15 78.6 140 79.5 140H79.65L79.8 140.15ZM94.8 139.85L94.65 140H94.5C93.6 140 92.75 139.9 91.95 139.7C91.25 139.4 90.6 139.05 90 138.65C89.4 138.15 88.85 137.6 88.35 137C87.95 136.4 87.6 135.75 87.3 135.05C87.1 134.25 87 133.4 87 132.5V132.35L87.15 132.2H94.8V139.85ZM94.2 139.85V132.2H101.85L102 132.35V132.5C102 133.4 101.85 134.25 101.55 135.05C101.35 135.75 101 136.4 100.5 137C100.1 137.6 99.6 138.15 99 138.65C98.4 139.05 97.7 139.4 96.9 139.7C96.2 139.9 95.4 140 94.5 140H94.35L94.2 139.85ZM94.2 125.15L94.35 125H94.5C95.4 125 96.2 125.15 96.9 125.45C97.7 125.65 98.4 126 99 126.5C99.6 126.9 100.1 127.4 100.5 128C101 128.6 101.35 129.3 101.55 130.1C101.85 130.8 102 131.6 102 132.5V132.65L101.85 132.8H94.2V125.15ZM94.8 125.15V132.8H87.15L87 132.65V132.5C87 131.6 87.1 130.8 87.3 130.1C87.6 129.3 87.95 128.6 88.35 128C88.85 127.4 89.4 126.9 90 126.5C90.6 126 91.25 125.65 91.95 125.45C92.75 125.15 93.6 125 94.5 125H94.65L94.8 125.15ZM94.8 124.85L94.65 125H94.5C93.6 125 92.75 124.9 91.95 124.7C91.25 124.4 90.6 124.05 90 123.65C89.4 123.15 88.85 122.6 88.35 122C87.95 121.4 87.6 120.75 87.3 120.05C87.1 119.25 87 118.4 87 117.5V117.35L87.15 117.2H94.8V124.85ZM94.2 124.85V117.2H101.85L102 117.35V117.5C102 118.4 101.85 119.25 101.55 120.05C101.35 120.75 101 121.4 100.5 122C100.1 122.6 99.6 123.15 99 123.65C98.4 124.05 97.7 124.4 96.9 124.7C96.2 124.9 95.4 125 94.5 125H94.35L94.2 124.85ZM94.2 110.15L94.35 110H94.5C95.4 110 96.2 110.15 96.9 110.45C97.7 110.65 98.4 111 99 111.5C99.6 111.9 100.1 112.4 100.5 113C101 113.6 101.35 114.3 101.55 115.1C101.85 115.8 102 116.6 102 117.5V117.65L101.85 117.8H94.2V110.15ZM94.8 110.15V117.8H87.15L87 117.65V117.5C87 116.6 87.1 115.8 87.3 115.1C87.6 114.3 87.95 113.6 88.35 113C88.85 112.4 89.4 111.9 90 111.5C90.6 111 91.25 110.65 91.95 110.45C92.75 110.15 93.6 110 94.5 110H94.65L94.8 110.15ZM109.8 109.85L109.65 110H109.5C108.6 110 107.75 109.9 106.95 109.7C106.25 109.4 105.6 109.05 105 108.65C104.4 108.15 103.85 107.6 103.35 107C102.95 106.4 102.6 105.75 102.3 105.05C102.1 104.25 102 103.4 102 102.5V102.35L102.15 102.2H109.8V109.85ZM109.2 109.85V102.2H116.85L117 102.35V102.5C117 103.4 116.85 104.25 116.55 105.05C116.35 105.75 116 106.4 115.5 107C115.1 107.6 114.6 108.15 114 108.65C113.4 109.05 112.7 109.4 111.9 109.7C111.2 109.9 110.4 110 109.5 110H109.35L109.2 109.85ZM109.2 95.15L109.35 95H109.5C110.4 95 111.2 95.15 111.9 95.45C112.7 95.65 113.4 96 114 96.5C114.6 96.9 115.1 97.4 115.5 98C116 98.6 116.35 99.3 116.55 100.1C116.85 100.8 117 101.6 117 102.5V102.65L116.85 102.8H109.2V95.15ZM109.8 95.15V102.8H102.15L102 102.65V102.5C102 101.6 102.1 100.8 102.3 100.1C102.6 99.3 102.95 98.6 103.35 98C103.85 97.4 104.4 96.9 105 96.5C105.6 96 106.25 95.65 106.95 95.45C107.75 95.15 108.6 95 109.5 95H109.65L109.8 95.15ZM109.8 94.85L109.65 95H109.5C108.6 95 107.75 94.9 106.95 94.7C106.25 94.4 105.6 94.05 105 93.65C104.4 93.15 103.85 92.6 103.35 92C102.95 91.4 102.6 90.75 102.3 90.05C102.1 89.25 102 88.4 102 87.5V87.35L102.15 87.2H109.8V94.85ZM109.2 94.85V87.2H116.85L117 87.35V87.5C117 88.4 116.85 89.25 116.55 90.05C116.35 90.75 116 91.4 115.5 92C115.1 92.6 114.6 93.15 114 93.65C113.4 94.05 112.7 94.4 111.9 94.7C111.2 94.9 110.4 95 109.5 95H109.35L109.2 94.85ZM109.2 80.15L109.35 80H109.5C110.4 80 111.2 80.15 111.9 80.45C112.7 80.65 113.4 81 114 81.5C114.6 81.9 115.1 82.4 115.5 83C116 83.6 116.35 84.3 116.55 85.1C116.85 85.8 117 86.6 117 87.5V87.65L116.85 87.8H109.2V80.15ZM109.8 80.15V87.8H102.15L102 87.65V87.5C102 86.6 102.1 85.8 102.3 85.1C102.6 84.3 102.95 83.6 103.35 83C103.85 82.4 104.4 81.9 105 81.5C105.6 81 106.25 80.65 106.95 80.45C107.75 80.15 108.6 80 109.5 80H109.65L109.8 80.15Z" fill="#FF3402"/>
</svg>
